<svg width="52" height="52" viewBox="0 0 52 52" fill="none" xmlns="http://www.w3.org/2000/svg">
<circle cx="26" cy="26" r="26" fill="#F2F2F2"/>
<path d="M25.5 8L27.0617 6.04783L25.5661 4.85133L24.0216 5.98399L25.5 8ZM28 10H30.5V8.79844L29.5617 8.04783L28 10ZM11.9784 21.016L19.4784 15.516L16.5216 11.484L9.02159 16.984L11.9784 21.016ZM19.4784 15.516L26.9784 10.016L24.0216 5.98399L16.5216 11.484L19.4784 15.516ZM15.5 13.5V40.5H20.5V13.5H15.5ZM23.9383 9.95217L26.4383 11.9522L29.5617 8.04783L27.0617 6.04783L23.9383 9.95217ZM25.5 10V29.5H30.5V10H25.5ZM25.5 29.5V43.5H30.5V29.5H25.5ZM29.3159 31.6257L39.8159 25.1257L37.1841 20.8743L26.6841 27.3743L29.3159 31.6257ZM41 23V16.5H36V23H41ZM36 23V36.5H41V23H36Z" fill="black"/>
<path d="M9 23L12 21L9 17V23Z" fill="black"/>
<path d="M20.5 44L15.5 40.5H20.5V44Z" fill="black"/>
<path d="M25.5 47L30.5 43.5H25.5V47Z" fill="black"/>
<path d="M36 13L41 16.5H36V13Z" fill="black"/>
<path d="M36 40L41 36.5H36V40Z" fill="black"/>
</svg>
