<svg width="32" height="43" viewBox="0 0 32 43" fill="none" xmlns="http://www.w3.org/2000/svg">
<path d="M16.5 4L18.0617 2.04783L16.5661 0.851333L15.0216 1.98399L16.5 4ZM19 6H21.5V4.79844L20.5617 4.04783L19 6ZM2.97841 17.016L10.4784 11.516L7.52159 7.48399L0.0215908 12.984L2.97841 17.016ZM10.4784 11.516L17.9784 6.01601L15.0216 1.98399L7.52159 7.48399L10.4784 11.516ZM6.5 9.5V36.5H11.5V9.5H6.5ZM14.9383 5.95217L17.4383 7.95217L20.5617 4.04783L18.0617 2.04783L14.9383 5.95217ZM16.5 6V25.5H21.5V6H16.5ZM16.5 25.5V39.5H21.5V25.5H16.5ZM20.3159 27.6257L30.8159 21.1257L28.1841 16.8743L17.6841 23.3743L20.3159 27.6257ZM32 19V12.5H27V19H32ZM27 19V32.5H32V19H27Z" fill="black"/>
<path d="M0 19L3 17L0 13V19Z" fill="black"/>
<path d="M11.5 40L6.5 36.5H11.5V40Z" fill="black"/>
<path d="M16.5 43L21.5 39.5H16.5V43Z" fill="black"/>
<path d="M27 9L32 12.5H27V9Z" fill="black"/>
<path d="M27 36L32 32.5H27V36Z" fill="black"/>
</svg>
