<svg width="85" height="67" viewBox="0 0 85 67" fill="none" xmlns="http://www.w3.org/2000/svg">
<path d="M40.5 3.5L42.0617 1.54783L40.5661 0.351333L39.0216 1.48399L40.5 3.5ZM43 5.5H45.5V4.29844L44.5617 3.54783L43 5.5ZM26.9784 16.516L34.4784 11.016L31.5216 6.98399L24.0216 12.484L26.9784 16.516ZM34.4784 11.016L41.9784 5.51601L39.0216 1.48399L31.5216 6.98399L34.4784 11.016ZM30.5 9V36H35.5V9H30.5ZM38.9383 5.45217L41.4383 7.45217L44.5617 3.54783L42.0617 1.54783L38.9383 5.45217ZM40.5 5.5V25H45.5V5.5H40.5ZM40.5 25V39H45.5V25H40.5ZM44.3159 27.1257L54.8159 20.6257L52.1841 16.3743L41.6841 22.8743L44.3159 27.1257ZM56 18.5V12H51V18.5H56ZM51 18.5V32H56V18.5H51Z" fill="white"/>
<path d="M24 18.5L33 12.5H24V18.5Z" fill="white"/>
<path d="M35.5 39.5L30.5 36H35.5V39.5Z" fill="white"/>
<path d="M40.5 42.5L45.5 39H40.5V42.5Z" fill="white"/>
<path d="M51 8.5L56 12H51V8.5Z" fill="white"/>
<path d="M51 35.5L56 32H51V35.5Z" fill="white"/>
<path d="M6.10972 50.6H3.34972V48.2H11.5097V50.6H8.74972V65H6.10972V50.6ZM13.9879 48.2H17.8999C19.2599 48.2 20.2519 48.52 20.8759 49.16C21.4999 49.784 21.8119 50.752 21.8119 52.064V53.096C21.8119 54.84 21.2359 55.944 20.0839 56.408V56.456C20.7239 56.648 21.1719 57.04 21.4279 57.632C21.6999 58.224 21.8359 59.016 21.8359 60.008V62.96C21.8359 63.44 21.8519 63.832 21.8839 64.136C21.9159 64.424 21.9959 64.712 22.1239 65H19.4359C19.3399 64.728 19.2759 64.472 19.2439 64.232C19.2119 63.992 19.1959 63.56 19.1959 62.936V59.864C19.1959 59.096 19.0679 58.56 18.8119 58.256C18.5719 57.952 18.1479 57.8 17.5399 57.8H16.6279V65H13.9879V48.2ZM17.5879 55.4C18.1159 55.4 18.5079 55.264 18.7639 54.992C19.0359 54.72 19.1719 54.264 19.1719 53.624V52.328C19.1719 51.72 19.0599 51.28 18.8359 51.008C18.6279 50.736 18.2919 50.6 17.8279 50.6H16.6279V55.4H17.5879ZM26.9166 57.848L23.7246 48.2H26.5326L28.3326 54.368H28.3806L30.1806 48.2H32.7486L29.5566 57.848V65H26.9166V57.848ZM40.1817 48.2H42.8217V55.04H45.6537V48.2H48.2937V65H45.6537V57.44H42.8217V65H40.1817V48.2ZM53.4998 48.2H57.0758L59.8118 65H57.1718L56.6918 61.664V61.712H53.6918L53.2118 65H50.7638L53.4998 48.2ZM56.3798 59.432L55.2038 51.128H55.1558L54.0038 59.432H56.3798ZM62.2926 48.2H66.2046C67.5646 48.2 68.5566 48.52 69.1806 49.16C69.8046 49.784 70.1166 50.752 70.1166 52.064V53.096C70.1166 54.84 69.5406 55.944 68.3886 56.408V56.456C69.0286 56.648 69.4766 57.04 69.7326 57.632C70.0046 58.224 70.1406 59.016 70.1406 60.008V62.96C70.1406 63.44 70.1566 63.832 70.1886 64.136C70.2206 64.424 70.3006 64.712 70.4286 65H67.7406C67.6446 64.728 67.5806 64.472 67.5486 64.232C67.5166 63.992 67.5006 63.56 67.5006 62.936V59.864C67.5006 59.096 67.3726 58.56 67.1166 58.256C66.8766 57.952 66.4526 57.8 65.8446 57.8H64.9326V65H62.2926V48.2ZM65.8926 55.4C66.4206 55.4 66.8126 55.264 67.0686 54.992C67.3406 54.72 67.4766 54.264 67.4766 53.624V52.328C67.4766 51.72 67.3646 51.28 67.1406 51.008C66.9326 50.736 66.5966 50.6 66.1326 50.6H64.9326V55.4H65.8926ZM73.1723 48.2H77.2043C78.5163 48.2 79.5003 48.552 80.1563 49.256C80.8123 49.96 81.1403 50.992 81.1403 52.352V60.848C81.1403 62.208 80.8123 63.24 80.1563 63.944C79.5003 64.648 78.5163 65 77.2043 65H73.1723V48.2ZM77.1563 62.6C77.5883 62.6 77.9163 62.472 78.1403 62.216C78.3803 61.96 78.5003 61.544 78.5003 60.968V52.232C78.5003 51.656 78.3803 51.24 78.1403 50.984C77.9163 50.728 77.5883 50.6 77.1563 50.6H75.8123V62.6H77.1563Z" fill="white"/>
</svg>
